<svg xmlns="http://www.w3.org/2000/svg" xmlns:xlink="http://www.w3.org/1999/xlink" version="1.1" id="Layer_1" x="0px" y="0px" width="100px" height="100px" viewBox="0 0 100 100" enable-background="new 0 0 100 100" xml:space="preserve">
<g>
	<path fill="none" d="M50,16.61c-18.411,0-33.39,14.979-33.39,33.39c0,18.412,14.979,33.391,33.39,33.391S83.39,68.412,83.39,50   c0-9.139-3.621-17.669-10.195-24.02C66.938,19.938,58.7,16.61,50,16.61z M59.13,55.29l-6.849,15.876   c-1.255,2.91-3.309,2.91-4.563,0L40.87,55.29c-1.255-2.909-1.255-7.671,0-10.581l6.848-15.876c1.255-2.91,3.309-2.91,4.563,0   l6.849,15.876C60.385,47.619,60.385,52.381,59.13,55.29z"/>
	<path fill="#000000" d="M89.285,32.99c-2.252-5.194-5.466-9.83-9.554-13.778C71.711,11.466,61.152,7.2,50,7.2   c-11.433,0-22.181,4.452-30.264,12.536C11.652,27.819,7.2,38.567,7.2,50c0,11.432,4.452,22.18,12.536,30.264   S38.567,92.801,50,92.801s22.181-4.453,30.265-12.537C88.348,72.18,92.8,61.432,92.8,50C92.8,44.093,91.617,38.37,89.285,32.99z    M50,83.391c-18.411,0-33.39-14.979-33.39-33.391c0-18.412,14.979-33.39,33.39-33.39c8.7,0,16.938,3.328,23.194,9.37   C79.769,32.331,83.39,40.861,83.39,50C83.39,68.412,68.411,83.391,50,83.391z"/>
	<path fill="#000000" d="M52.281,28.833c-1.255-2.91-3.309-2.91-4.563,0L40.87,44.709c-1.255,2.91-1.255,7.671,0,10.581   l6.848,15.876c1.255,2.91,3.309,2.91,4.563,0L59.13,55.29c1.255-2.909,1.255-7.671,0-10.581L52.281,28.833z M50,54.01   c-2.215,0-4.01-1.795-4.01-4.01c0-2.214,1.795-4.009,4.01-4.009c2.214,0,4.01,1.795,4.01,4.009C54.01,52.215,52.214,54.01,50,54.01   z"/>
</g>
</svg>